mtllib material.mtl
usemtl material_0
v -0.23000000 -0.37187500 0.31290000
v -0.23000000 -0.37187500 0.31290000
v -0.23000000 -0.37187500 0.31290000
v 0.23000000 -0.37187500 0.31290000
v 0.23000000 -0.37187500 0.31290000
v 0.23000000 -0.37187500 0.31290000
v 0.23000000 -0.37187500 0.05790000
v 0.23000000 -0.37187500 0.05790000
v 0.23000000 -0.37187500 0.05790000
v -0.23000000 -0.37187500 0.05790000
v -0.23000000 -0.37187500 0.05790000
v -0.23000000 -0.37187500 0.05790000
v 0.23000000 0.37187500 0.31290000
v 0.23000000 0.37187500 0.31290000
v 0.23000000 0.37187500 0.31290000
v 0.23000000 0.37187500 0.05790000
v 0.23000000 0.37187500 0.05790000
v 0.23000000 0.37187500 0.05790000
v -0.23000000 0.37187500 0.31290000
v -0.23000000 0.37187500 0.31290000
v -0.23000000 0.37187500 0.31290000
v -0.23000000 0.37187500 0.05790000
v -0.23000000 0.37187500 0.05790000
v -0.23000000 0.37187500 0.05790000
v -0.23500000 -0.37687500 0.00000000
v -0.23500000 -0.37687500 0.00000000
v -0.23500000 -0.37687500 0.00000000
v -0.23500000 0.37687500 -0.00000000
v -0.23500000 0.37687500 -0.00000000
v -0.23500000 0.37687500 -0.00000000
v 0.23500000 0.37687500 -0.00000000
v 0.23500000 0.37687500 -0.00000000
v 0.23500000 0.37687500 -0.00000000
v 0.23500000 -0.37687500 0.00000000
v 0.23500000 -0.37687500 0.00000000
v 0.23500000 -0.37687500 0.00000000
v -0.23500000 -0.37687500 0.31290000
v -0.23500000 -0.37687500 0.31290000
v -0.23500000 -0.37687500 0.31290000
v 0.23500000 -0.37687500 0.31290000
v 0.23500000 -0.37687500 0.31290000
v 0.23500000 -0.37687500 0.31290000
v -0.23500000 0.37687500 0.31290000
v -0.23500000 0.37687500 0.31290000
v -0.23500000 0.37687500 0.31290000
v 0.23500000 0.37687500 0.31290000
v 0.23500000 0.37687500 0.31290000
v 0.23500000 0.37687500 0.31290000
vn -0.00000000 100.00000000 -0.00000000
vn 0.00000000 0.00000000 100.00000000
vn 100.00000000 0.00000000 0.00000000
vn -0.00000000 100.00000000 -0.00000000
vn -100.00000000 0.00000000 0.00000000
vn 0.00000000 0.00000000 100.00000000
vn -0.00000000 100.00000000 -0.00000000
vn 0.00000000 0.00000000 100.00000000
vn -100.00000000 0.00000000 0.00000000
vn 0.00000000 0.00000000 100.00000000
vn 100.00000000 0.00000000 0.00000000
vn -0.00000000 100.00000000 -0.00000000
vn 0.00000000 0.00000000 100.00000000
vn 0.00000000 -100.00000000 0.00000000
vn -100.00000000 0.00000000 0.00000000
vn -100.00000000 0.00000000 0.00000000
vn 0.00000000 0.00000000 100.00000000
vn 0.00000000 -100.00000000 0.00000000
vn 0.00000000 0.00000000 100.00000000
vn 100.00000000 0.00000000 0.00000000
vn 0.00000000 -100.00000000 0.00000000
vn 0.00000000 -100.00000000 0.00000000
vn 0.00000000 0.00000000 100.00000000
vn 100.00000000 0.00000000 0.00000000
vn -100.00000000 0.00000000 0.00000000
vn 0.00000000 -100.00000000 0.00000000
vn 0.00000000 -0.00000000 -100.00000000
vn -100.00000000 0.00000000 0.00000000
vn 0.00000000 100.00000000 -0.00000000
vn 0.00000000 -0.00000000 -100.00000000
vn 100.00000000 0.00000000 0.00000000
vn 0.00000000 100.00000000 -0.00000000
vn 0.00000000 -0.00000000 -100.00000000
vn 0.00000000 -100.00000000 0.00000000
vn 100.00000000 0.00000000 0.00000000
vn 0.00000000 -0.00000000 -100.00000000
vn 0.00000000 0.00000000 100.00000000
vn 0.00000000 -100.00000000 0.00000000
vn -100.00000000 0.00000000 0.00000000
vn 0.00000000 0.00000000 100.00000000
vn 0.00000000 -100.00000000 0.00000000
vn 100.00000000 0.00000000 0.00000000
vn 0.00000000 0.00000000 100.00000000
vn 0.00000000 100.00000000 -0.00000000
vn -100.00000000 0.00000000 0.00000000
vn 0.00000000 100.00000000 -0.00000000
vn 100.00000000 0.00000000 0.00000000
vn 0.00000000 0.00000000 100.00000000
vt -46.00000000 0.00000000
vt 74.87500000 0.50000000
vt -0.00000000 -0.00000000
vt -0.00000000 -0.00000000
vt -74.37500000 0.00000000
vt 74.87500000 46.50000000
vt -0.00000000 25.50000000
vt 37.18750000 23.00000000
vt -74.37500000 25.50000000
vt 37.18750000 -23.00000000
vt -0.00000000 25.50000000
vt -46.00000000 25.50000000
vt 0.50000000 46.50000000
vt -46.00000000 0.00000000
vt -0.00000000 0.00000000
vt 0.00000000 25.50000000
vt -37.18750000 23.00000000
vt -46.00000000 25.50000000
vt 0.50000000 0.50000000
vt -74.37500000 -0.00000000
vt -0.00000000 0.00000000
vt -0.00000000 25.50000000
vt -37.18750000 -23.00000000
vt -74.37500000 25.50000000
vt 37.68750000 -15.64500000
vt 31.29000000 0.00000000
vt 0.00000000 0.00000000
vt -37.68750000 -15.64500000
vt 0.00000000 0.00000000
vt 75.37500000 0.00000000
vt 37.68750000 -15.64500000
vt 0.00000000 47.00000000
vt 75.37500000 47.00000000
vt 31.29000000 47.00000000
vt -37.68750000 -15.64500000
vt 0.00000000 47.00000000
vt 75.37500000 0.00000000
vt 0.00000000 0.00000000
vt 37.68750000 15.64500000
vt 75.37500000 47.00000000
vt 0.00000000 47.00000000
vt -37.68750000 15.64500000
vt 0.00000000 0.00000000
vt 31.29000000 0.00000000
vt -37.68750000 15.64500000
vt 31.29000000 47.00000000
vt 37.68750000 15.64500000
vt 0.00000000 47.00000000
f 1/1/1 4/4/4 12/12/12
f 12/12/12 4/4/4 7/7/7
f 5/5/5 15/15/15 9/9/9
f 9/9/9 15/15/15 16/16/16
f 14/14/14 21/21/21 18/18/18
f 18/18/18 21/21/21 22/22/22
f 20/20/20 3/3/3 24/24/24
f 24/24/24 3/3/3 11/11/11
f 23/23/23 10/10/10 17/17/17
f 17/17/17 10/10/10 8/8/8
f 27/27/27 30/30/30 36/36/36
f 36/36/36 30/30/30 33/33/33
f 38/38/38 26/26/26 41/41/41
f 41/41/41 26/26/26 34/34/34
f 2/2/2 37/37/37 6/6/6
f 6/6/6 37/37/37 40/40/40
f 6/6/6 40/40/40 48/48/48
f 2/2/2 19/19/19 37/37/37
f 37/37/37 19/19/19 43/43/43
f 43/43/43 19/19/19 13/13/13
f 43/43/43 13/13/13 48/48/48
f 48/48/48 13/13/13 6/6/6
f 29/29/29 44/44/44 32/32/32
f 32/32/32 44/44/44 46/46/46
f 47/47/47 42/42/42 31/31/31
f 31/31/31 42/42/42 35/35/35
f 28/28/28 25/25/25 45/45/45
f 45/45/45 25/25/25 39/39/39

